<?xml version="1.0" encoding="UTF-8"?>
<svg version="1.1" xmlns="http://www.w3.org/2000/svg" width="230" height="230">
<path d="M0 0 C1.28299232 -0.002062 1.28299232 -0.002062 2.59190369 -0.00416565 C3.98696892 0.00122726 3.98696892 0.00122726 5.41021729 0.00672913 C6.39591202 0.0065831 7.38160675 0.00643707 8.39717102 0.00628662 C11.65447187 0.00698316 14.91171549 0.01476349 18.16900635 0.02259827 C20.42773406 0.02446337 22.68646217 0.02588684 24.94519043 0.02688599 C30.88982256 0.03070392 36.83443026 0.04052807 42.77905273 0.05158997 C48.84523183 0.06181961 54.91141487 0.06638694 60.9776001 0.07142639 C72.87995631 0.08215096 84.78228797 0.09974194 96.68463135 0.12025452 C96.68463135 12.33025452 96.68463135 24.54025452 96.68463135 37.12025452 C92.61248291 37.12641785 92.61248291 37.12641785 88.45806885 37.13270569 C79.47334278 37.14992807 70.48890032 37.19447146 61.50434875 37.25234509 C56.05869067 37.28658836 50.61331234 37.31172098 45.1675415 37.31581116 C39.90882237 37.32009974 34.65073404 37.34860945 29.39221191 37.39368629 C27.38927896 37.40664331 25.38627044 37.41097536 23.38330078 37.40640831 C20.570297 37.40148958 17.75912789 37.42765088 14.9463501 37.46083069 C13.7131176 37.44789223 13.7131176 37.44789223 12.45497131 37.43469238 C6.40033231 37.55386567 2.42873007 39.37861145 -2.31536865 43.12025452 C-6.28315152 47.41657991 -8.21074104 52.26110796 -8.31536865 58.12025452 C-7.53560307 64.18115975 -5.52517299 69.46181192 -0.68719482 73.46875 C4.83511476 77.24074513 9.15597431 77.80832685 15.74713135 77.68666077 C17.17146484 77.69511269 17.17146484 77.69511269 18.62457275 77.70373535 C21.64510162 77.72009407 24.66415566 77.70476118 27.68463135 77.68275452 C62.19554995 77.48937679 62.19554995 77.48937679 76.68463135 88.12025452 C77.25439697 88.52115295 77.8241626 88.92205139 78.41119385 89.33509827 C89.01785657 97.41247988 93.30396581 109.72448086 96.68463135 122.12025452 C96.68463135 145.22025452 96.68463135 168.32025452 96.68463135 192.12025452 C49.49463135 192.12025452 2.30463135 192.12025452 -46.31536865 192.12025452 C-46.31536865 180.57025452 -46.31536865 169.02025452 -46.31536865 157.12025452 C-43.76777832 157.105672 -41.22018799 157.09108948 -38.59539795 157.07606506 C-30.14557203 157.02556012 -21.69592732 156.95893753 -13.24627972 156.8845396 C-8.12699162 156.83995383 -3.00778096 156.80067209 2.1116333 156.77381897 C7.05902744 156.74766788 12.00612172 156.70718311 16.95332909 156.65706825 C18.83376502 156.640479 20.71425272 156.62891557 22.59475136 156.62264061 C38.75493696 156.81336145 38.75493696 156.81336145 53.68463135 151.30775452 C57.81093737 146.79460731 59.37095486 142.18466668 59.68463135 136.12025452 C59.00714919 130.66864028 57.26046676 126.35479646 53.68463135 122.12025452 C46.52328725 116.56533352 40.27952901 115.98754568 31.46588135 115.94447327 C29.62732849 115.9212543 27.78878682 115.89713616 25.95025635 115.87220764 C23.07843758 115.83731046 20.2070256 115.80786004 17.33502197 115.79432678 C-0.82079477 115.69223958 -16.86673399 113.47414096 -30.62786865 100.37025452 C-44.01989622 86.15051051 -46.83879692 69.79774355 -46.58880615 50.95228577 C-46.20335951 39.07022512 -42.39929491 29.66409363 -35.31536865 20.12025452 C-34.84228271 19.4641217 -34.36919678 18.80798889 -33.8817749 18.13197327 C-26.31355639 8.46266292 -12.51329899 -0.0155638 0 0 Z " fill="#CD621E" transform="translate(90.31536865234375,18.879745483398438)"/>
</svg>
