<svg xmlns="http://www.w3.org/2000/svg" width="1054" height="308" viewBox="0 0 1054 308" version="1.1"><path d="M 92.441 40.855 C 45.077 59.549, 44.462 130.301, 91.500 149.185 C 99.500 152.397, 99.500 152.397, 124 152.948 C 155.085 153.648, 161.137 156.494, 163.543 171.542 C 166.920 192.665, 154.571 196.372, 84.750 195.195 L 57 194.727 57 212.363 L 57 230 128.500 230 L 200 230 200 196.210 C 200 152.595, 198.215 145.030, 184.748 131.563 C 172.059 118.874, 165.395 116.883, 133 116.109 C 109.017 115.536, 107.322 115.372, 104.500 113.348 C 93.357 105.354, 91.181 91.339, 99.631 81.986 C 106.632 74.237, 107.240 74.159, 161.250 74.066 L 200 74 200 56 L 200 38 149.750 38.034 C 99.500 38.069, 99.500 38.069, 92.441 40.855 M 236 158 L 236 230 274.750 229.985 C 323.543 229.967, 330.199 228.653, 342.611 216.588 L 347.847 211.500 353.043 216.296 C 366.461 228.680, 372.890 229.960, 421.750 229.983 L 460 230 460 158 L 460 86 439.574 86 L 419.148 86 418.761 129.750 C 418.246 188.057, 415.667 194.965, 394.409 194.994 C 372.212 195.025, 369.594 188.299, 369.202 130.250 L 368.903 86 348.009 86 L 327.115 86 326.765 129.750 C 326.296 188.278, 323.666 195, 301.235 195 C 280.423 195, 277.699 187.594, 277.235 129.750 L 276.885 86 256.442 86 L 236 86 236 158 M 550.021 88.011 C 480.514 106.736, 477.356 203.661, 545.500 226.763 C 553.500 229.476, 553.500 229.476, 596.799 229.787 L 640.099 230.099 639.787 186.799 C 639.476 143.500, 639.476 143.500, 636.763 135.500 C 624.579 99.560, 585.852 78.358, 550.021 88.011 M 729.021 88.011 C 702.812 95.072, 683.556 114.468, 676.999 140.410 C 675.102 147.916, 675 151.632, 675 213.160 L 675 278 695 278 L 715 278 715 254.081 L 715 230.161 738.250 229.780 C 770.534 229.252, 781.468 225.437, 797.953 208.953 C 849.330 157.576, 798.944 69.174, 729.021 88.011 M 908.021 88.011 C 881.812 95.072, 862.556 114.468, 855.999 140.410 C 854.102 147.916, 854 151.632, 854 213.160 L 854 278 874 278 L 894 278 894 254.081 L 894 230.161 917.250 229.780 C 949.534 229.252, 960.468 225.437, 976.953 208.953 C 1028.330 157.576, 977.944 69.174, 908.021 88.011 M 561.732 123.038 C 543.034 126.181, 529.938 144.689, 533.019 163.614 C 537.668 192.183, 572.597 203.489, 593.043 183.043 C 617.497 158.588, 595.945 117.285, 561.732 123.038 M 740.732 123.038 C 722.034 126.181, 708.938 144.689, 712.019 163.614 C 716.668 192.183, 751.597 203.489, 772.043 183.043 C 796.497 158.588, 774.945 117.285, 740.732 123.038 M 919.732 123.038 C 901.034 126.181, 887.938 144.689, 891.019 163.614 C 895.668 192.183, 930.597 203.489, 951.043 183.043 C 975.497 158.588, 953.945 117.285, 919.732 123.038" stroke="none" fill="#cd621e" fill-rule="evenodd"/></svg>